<svg id="visual" viewBox="0 0 3840 2160" width="3840" height="2160" xmlns="http://www.w3.org/2000/svg" xmlns:xlink="http://www.w3.org/1999/xlink" version="1.1"><rect x="0" y="0" width="3840" height="2160" fill="#ffffff"></rect><g fill="none" stroke="#b24852" stroke-width="25"><circle r="124" cx="505" cy="1076"></circle><circle r="53" cx="1181" cy="1049"></circle><circle r="77" cx="1044" cy="2062"></circle><circle r="118" cx="242" cy="1789"></circle><circle r="90" cx="803" cy="466"></circle><circle r="60" cx="2737" cy="1429"></circle><circle r="114" cx="3730" cy="915"></circle><circle r="105" cx="1572" cy="1677"></circle><circle r="109" cx="3290" cy="73"></circle><circle r="68" cx="3450" cy="1726"></circle><circle r="61" cx="1320" cy="1356"></circle><circle r="113" cx="1834" cy="754"></circle><circle r="59" cx="1095" cy="101"></circle><circle r="93" cx="2381" cy="1023"></circle><circle r="105" cx="1759" cy="1285"></circle><circle r="116" cx="794" cy="1026"></circle><circle r="110" cx="418" cy="2077"></circle><circle r="114" cx="1232" cy="1860"></circle><circle r="95" cx="1299" cy="788"></circle><circle r="103" cx="1785" cy="60"></circle><circle r="106" cx="2523" cy="2157"></circle><circle r="68" cx="2574" cy="534"></circle><circle r="95" cx="2953" cy="1599"></circle><circle r="116" cx="2428" cy="747"></circle><circle r="72" cx="1650" cy="525"></circle><circle r="106" cx="497" cy="236"></circle><circle r="70" cx="577" cy="1326"></circle><circle r="71" cx="2153" cy="1522"></circle><circle r="98" cx="3720" cy="2000"></circle><circle r="57" cx="104" cy="194"></circle><circle r="113" cx="3442" cy="1021"></circle><circle r="80" cx="3226" cy="2019"></circle><circle r="96" cx="271" cy="1343"></circle><circle r="74" cx="3239" cy="1343"></circle><circle r="54" cx="2834" cy="247"></circle><circle r="98" cx="3266" cy="582"></circle><circle r="90" cx="519" cy="1648"></circle><circle r="54" cx="2047" cy="1105"></circle><circle r="119" cx="2326" cy="1889"></circle><circle r="82" cx="2342" cy="412"></circle><circle r="65" cx="3019" cy="749"></circle><circle r="93" cx="3736" cy="248"></circle><circle r="61" cx="28" cy="752"></circle><circle r="118" cx="2523" cy="1649"></circle><circle r="101" cx="1872" cy="1949"></circle><circle r="94" cx="2467" cy="179"></circle><circle r="52" cx="2684" cy="1165"></circle><circle r="80" cx="317" cy="460"></circle><circle r="95" cx="87" cy="1074"></circle><circle r="90" cx="3814" cy="1242"></circle><circle r="91" cx="2833" cy="926"></circle><circle r="100" cx="2985" cy="1173"></circle><circle r="102" cx="2809" cy="2071"></circle><circle r="73" cx="787" cy="1941"></circle><circle r="87" cx="1362" cy="2151"></circle><circle r="97" cx="1259" cy="512"></circle><circle r="116" cx="941" cy="1617"></circle><circle r="91" cx="566" cy="698"></circle><circle r="113" cx="888" cy="792"></circle><circle r="60" cx="2647" cy="5"></circle><circle r="60" cx="2176" cy="794"></circle><circle r="110" cx="3" cy="1957"></circle><circle r="104" cx="3717" cy="1624"></circle><circle r="93" cx="1832" cy="1696"></circle><circle r="84" cx="3370" cy="330"></circle><circle r="80" cx="1472" cy="1104"></circle><circle r="96" cx="2418" cy="1415"></circle><circle r="70" cx="770" cy="139"></circle><circle r="54" cx="988" cy="1353"></circle><circle r="61" cx="37" cy="439"></circle><circle r="52" cx="3521" cy="1377"></circle><circle r="62" cx="3006" cy="4"></circle><circle r="111" cx="2035" cy="125"></circle><circle r="81" cx="3614" cy="618"></circle><circle r="71" cx="1406" cy="34"></circle><circle r="115" cx="2613" cy="1904"></circle><circle r="95" cx="3183" cy="977"></circle><circle r="75" cx="2198" cy="2151"></circle><circle r="104" cx="1579" cy="1957"></circle><circle r="63" cx="56" cy="1472"></circle><circle r="71" cx="3077" cy="404"></circle><circle r="92" cx="1909" cy="486"></circle><circle r="69" cx="1460" cy="329"></circle><circle r="72" cx="2844" cy="498"></circle><circle r="87" cx="3613" cy="19"></circle><circle r="72" cx="3473" cy="2101"></circle><circle r="83" cx="315" cy="852"></circle><circle r="53" cx="3179" cy="1719"></circle><circle r="53" cx="1576" cy="833"></circle><circle r="89" cx="1220" cy="1588"></circle><circle r="107" cx="319" cy="56"></circle><circle r="88" cx="1806" cy="1029"></circle></g></svg>